<?xml version="1.0" encoding="UTF-8"?><svg id="Layer_2" xmlns="http://www.w3.org/2000/svg" viewBox="0 0 279 279"><defs><style>.cls-1{fill:#fff;}.cls-2{fill:#f24e1d;}.cls-3{fill:#ff7262;}.cls-4{fill:#1cbcfe;}.cls-5{fill:#29b78b;}.cls-6{fill:#5750ff;}</style></defs><g id="Layer_1-2"><g><circle class="cls-6" cx="139.5" cy="139.5" r="139.5"/><path class="cls-1" d="M192.34,216c.84,.51,1.67,1.04,2.48,1.59,1.05-.54,2.11-1.07,3.18-1.59h-5.66Z"/><path class="cls-4" d="M141.86,137.69h36.52c23.18,0,42,18.82,42,42v3.24c0,23.18-18.82,42-42,42h-36.52v-87.24h0Z"/><path class="cls-3" d="M141.86,45.64h25.3c23.18,0,42,18.82,42,42v3.24c0,23.18-18.82,42-42,42h-25.3V45.64h0Z"/><path class="cls-5" d="M58.62,137.69h36.52c23.18,0,42,18.82,42,42v3.24c0,23.18-18.82,42-42,42H58.62v-87.24h0Z" transform="translate(195.76 362.63) rotate(180)"/><path class="cls-2" d="M69.84,45.64h25.3c23.18,0,42,18.82,42,42v3.24c0,23.18-18.82,42-42,42h-25.3V45.64h0Z" transform="translate(206.98 178.52) rotate(-180)"/></g></g></svg>